# File produced by Open Asset Import Library (http://www.assimp.sf.net)
# (assimp v3.1.193236683)

mtllib plank.mtl

# 8 vertex positions
v  -7.2069 -5.96046e-08 21.8012
v  -13.3597 -5.96046e-08 21.8012
v  -13.3597 -5.96046e-08 -24.0488
v  -7.2069 -5.96046e-08 -24.0488
v  -13.3597 1.5996 -24.0488
v  -13.3597 1.5996 21.8012
v  -7.2069 1.5996 21.8012
v  -7.2069 1.5996 -24.0488

# 24 UV coordinates
vt 0.02 0.289 0
vt 0.02 0.1601 0
vt 0.98 0.1601 0
vt 0.98 0.289 0
vt 0.02 0.02 0
vt 0.98 0.02 0
vt 0.98 0.1488 0
vt 0.02 0.1488 0
vt 0.8694 0.4214 0
vt 0.8688 0.3879 0
vt 0.9976 0.3854 0
vt 0.9982 0.4189 0
vt 0.02 0.3786 0
vt 0.02 0.3451 0
vt 0.98 0.3451 0
vt 0.98 0.3786 0
vt 0.8724 0.4599 0
vt 0.8726 0.4264 0
vt 1.0014 0.4274 0
vt 1.0012 0.4609 0
vt 0.02 0.3338 0
vt 0.02 0.3003 0
vt 0.98 0.3003 0
vt 0.98 0.3338 0

# 8 vertex normals
vn 0.5774 -0.5774 0.5774
vn -0.5774 -0.5774 0.5774
vn -0.5774 -0.5774 -0.5774
vn 0.5774 -0.5774 -0.5774
vn -0.5774 0.5774 -0.5774
vn -0.5774 0.5774 0.5774
vn 0.5774 0.5774 0.5774
vn 0.5774 0.5774 -0.5774

# Mesh 'g plank_LP_plank_LP' with 12 faces
g g plank_LP_plank_LP
usemtl DefaultMaterial
f  1/1/1 2/2/2 3/3/3
f  3/3/3 4/4/4 1/1/1
f  5/5/5 6/6/6 7/7/7
f  7/7/7 8/8/8 5/5/5
f  6/9/6 2/10/2 1/11/1
f  1/11/1 7/12/7 6/9/6
f  7/13/7 1/14/1 4/15/4
f  4/15/4 8/16/8 7/13/7
f  8/17/8 4/18/4 3/19/3
f  3/19/3 5/20/5 8/17/8
f  5/21/5 3/22/3 2/23/2
f  2/23/2 6/24/6 5/21/5

